HIERARCHY
ROOT Hips
{
    OFFSET 0.000000 0.000000 0.000000
    CHANNELS 6 Xposition Yposition Zposition Zrotation Xrotation Yrotation
    JOINT Spine
    {
        OFFSET -0.000000 14.517291 0.000000
        CHANNELS 3 Zrotation Xrotation Yrotation
        JOINT Spine1
        {
            OFFSET -0.000000 37.558300 0.000000
            CHANNELS 3 Zrotation Xrotation Yrotation
            JOINT Neck
            {
                OFFSET -0.000000 37.404057 3.400369
                CHANNELS 3 Zrotation Xrotation Yrotation
                JOINT Head
                {
                    OFFSET -0.000000 24.785618 -3.540803
                    CHANNELS 3 Zrotation Xrotation Yrotation
                    End Site
                    {
                        OFFSET -0.000000 35.408028 0.000000
                    }
                }
            }
            JOINT LeftShoulder
            {
                OFFSET 6.992933 33.973492 -0.192664
                CHANNELS 3 Zrotation Xrotation Yrotation
                JOINT LeftArm
                {
                    OFFSET 21.527611 0.000000 0.000000
                    CHANNELS 3 Zrotation Xrotation Yrotation
                    JOINT LeftForeArm
                    {
                        OFFSET 56.353916 0.000000 0.000000
                        CHANNELS 3 Zrotation Xrotation Yrotation
                        JOINT LeftHand
                        {
                            OFFSET 47.774071 0.000000 0.000000
                            CHANNELS 3 Zrotation Xrotation Yrotation
                            End Site
                            {
                                OFFSET 26.556021 0.000000 0.000000
                            }
                        }
                    }
                }
            }
            JOINT RightShoulder
            {
                OFFSET -7.065357 33.973492 -0.192664
                CHANNELS 3 Zrotation Xrotation Yrotation
                JOINT RightArm
                {
                    OFFSET -21.527611 0.000000 0.000000
                    CHANNELS 3 Zrotation Xrotation Yrotation
                    JOINT RightForeArm
                    {
                        OFFSET -56.353916 0.000000 0.000000
                        CHANNELS 3 Zrotation Xrotation Yrotation
                        JOINT RightHand
                        {
                            OFFSET -47.774071 0.000000 0.000000
                            CHANNELS 3 Zrotation Xrotation Yrotation
                            End Site
                            {
                                OFFSET -26.556021 0.000000 0.000000
                            }
                        }
                    }
                }
            }
        }
    }
    JOINT LeftUpLeg
    {
        OFFSET 17.704014 0.000000 0.000000
        CHANNELS 3 Zrotation Xrotation Yrotation
        JOINT LeftLeg
        {
            OFFSET -0.000000 -81.181816 0.000000
            CHANNELS 3 Zrotation Xrotation Yrotation
            JOINT LeftFoot
            {
                OFFSET -0.000000 -62.821102 0.000000
                CHANNELS 3 Zrotation Xrotation Yrotation
                JOINT LeftToeBase
                {
                    OFFSET -0.000000 -11.507608 26.556021
                    CHANNELS 3 Zrotation Xrotation Yrotation
                    End Site
                    {
                        OFFSET -0.000000 0.000000 7.081605
                    }
                }
            }
        }
    }
    JOINT RightUpLeg
    {
        OFFSET -17.704014 0.000000 0.000000
        CHANNELS 3 Zrotation Xrotation Yrotation
        JOINT RightLeg
        {
            OFFSET -0.000000 -81.181816 0.000000
            CHANNELS 3 Zrotation Xrotation Yrotation
            JOINT RightFoot
            {
                OFFSET -0.000000 -62.821102 0.000000
                CHANNELS 3 Zrotation Xrotation Yrotation
                JOINT RightToeBase
                {
                    OFFSET -0.000000 -11.507608 26.556021
                    CHANNELS 3 Zrotation Xrotation Yrotation
                    End Site
                    {
                        OFFSET -0.000000 0.000000 7.081605
                    }
                }
            }
        }
    }
}
MOTION
Frames:    12
Frame Time:    0.008333
20.482386    146.120911    47.230145    2.318850    2.528362    -55.574009    3.940681    -0.787995    4.229078    -4.600824    -3.284464    1.267652    25.846134    1.581622    16.355900    -15.662519    14.067825    13.238772    14.687001    1.104731    -17.808712    -5.636784    -9.604025    -21.651064    -5.104047    1.679545    -87.150810    -1.417537    -2.895893    -22.756720    -23.095909    -15.294594    -3.871169    31.419147    -35.349857    68.508766    20.331421    -42.781147    88.221901    53.883438    -30.680914    60.855450    36.602455    -23.099316    25.753578    -28.670996    41.174480    3.437988    -1.574693    -12.533193    43.279789    0.000000    0.000000    0.000000    -28.327284    -6.854863    -19.483210    3.931701    34.416691    -7.132715    19.846163    -14.466534    6.931931    0.000000    0.000000    0.000000    
20.503220    146.125122    47.214920    2.328760    2.535943    -55.577526    3.899819    -0.813627    4.210100    -4.508239    -3.233440    1.265778    25.732025    1.496245    16.402782    -15.538963    14.118855    13.293378    14.647736    1.093646    -17.780420    -5.648654    -9.592733    -21.629755    -5.097160    1.657046    -87.157867    -1.444021    -2.906600    -22.798618    -23.035870    -15.172563    -3.878313    31.522160    -35.381336    68.387375    20.119812    -42.685875    88.092514    53.615311    -30.593834    60.753777    36.602856    -23.119181    25.776363    -28.646429    41.180176    3.416843    -1.581829    -12.523575    43.283249    0.000000    0.000000    0.000000    -28.325588    -6.871765    -19.503237    3.920836    34.404816    -7.110572    19.849705    -14.459846    6.936296    0.000000    0.000000    0.000000    
20.521467    146.132141    47.204906    2.336667    2.538927    -55.577381    3.847020    -0.839563    4.186545    -4.440504    -3.180696    1.261837    24.169893    0.278500    16.320841    -12.751663    15.041418    13.313511    14.688746    1.104372    -17.742624    -5.703006    -9.598336    -21.639183    -5.088859    1.637831    -87.174828    -1.411401    -2.926139    -22.795164    -22.897127    -15.059070    -3.860801    31.467110    -35.358208    68.151482    20.060373    -42.777424    88.113075    53.653320    -30.592218    60.810188    36.595806    -23.130821    25.775490    -28.639313    41.161896    3.414847    -1.560307    -12.488860    43.289497    0.000000    0.000000    0.000000    -28.329309    -6.880878    -19.515230    3.920065    34.392361    -7.119020    19.848448    -14.444585    6.957208    0.000000    0.000000    0.000000    
20.537022    146.136337    47.192745    2.343885    2.544704    -55.586098    3.810292    -0.872289    4.167611    -4.366297    -3.110248    1.259982    23.883499    0.065797    16.356007    -12.322112    15.163110    13.365052    14.665773    1.089021    -17.693447    -5.712080    -9.537540    -21.640724    -5.043351    1.556326    -87.206779    -1.413079    -2.967652    -22.704519    -22.813124    -14.932199    -3.858417    31.384117    -35.327408    67.867554    19.976183    -42.864021    88.147667    53.645206    -30.618420    60.836792    36.597206    -23.142477    25.782949    -28.630682    41.161701    3.414165    -1.569210    -12.487019    43.304123    0.000000    0.000000    0.000000    -28.327837    -6.900195    -19.530401    3.904928    34.392071    -7.076331    19.841221    -14.438231    6.957899    0.000000    0.000000    0.000000    
20.558475    146.140564    47.179710    2.355192    2.559701    -55.590824    3.776641    -0.892232    4.148763    -4.289423    -3.062376    1.257431    23.847635    0.050394    16.407295    -12.317767    15.128018    13.417127    14.642592    1.070660    -17.627365    -5.734607    -9.514002    -21.661812    -5.014124    1.532133    -87.224571    -1.417489    -2.964491    -22.708178    -22.719034    -14.777878    -3.884266    31.290741    -35.280338    67.598579    19.875437    -43.000156    88.205879    53.699245    -30.682076    60.816586    36.606812    -23.164845    25.795700    -28.620720    41.162197    3.398166    -1.594273    -12.492532    43.317070    0.000000    0.000000    0.000000    -28.327475    -6.926474    -19.528811    3.924129    34.389240    -7.063793    19.841068    -14.432632    6.915217    0.000000    0.000000    0.000000    
20.576912    146.142548    47.166679    2.364656    2.565744    -55.598782    3.727629    -0.903867    4.124763    -4.207202    -3.026454    1.252946    23.857418    0.085969    16.469221    -12.382936    15.060926    13.480211    14.616759    1.060158    -17.569607    -5.746305    -9.475938    -21.667427    -4.979232    1.497726    -87.258194    -1.430007    -2.966563    -22.650301    -22.587395    -14.609687    -3.885561    31.164244    -35.274250    67.280731    19.866514    -43.033340    88.300591    53.674694    -30.734129    60.855289    36.608536    -23.173393    25.780409    -28.636765    41.139938    3.406439    -1.585614    -12.480511    43.333588    0.000000    0.000000    0.000000    -28.334076    -6.953880    -19.528406    3.932642    34.400467    -7.053299    19.843971    -14.427912    6.891437    0.000000    0.000000    0.000000    
20.596291    146.144241    47.156342    2.369917    2.570823    -55.603855    3.681231    -0.912650    4.100421    -4.118920    -2.984465    1.248687    23.862839    0.115761    16.536209    -12.456291    14.993539    13.547827    14.582501    1.033269    -17.513077    -5.757186    -9.457940    -21.673296    -4.987656    1.512241    -87.275818    -1.401843    -2.966959    -22.686462    -22.470747    -14.429294    -3.907748    30.999670    -35.209282    66.968864    19.700975    -43.190495    88.307396    53.699974    -30.718136    60.915699    36.606709    -23.185898    25.794737    -28.614214    41.141655    3.401669    -1.584715    -12.474167    43.324265    0.000000    0.000000    0.000000    -28.340534    -6.973220    -19.523546    3.954236    34.403709    -7.099956    19.812933    -14.404869    6.916228    0.000000    0.000000    0.000000    
20.615711    146.144608    47.144188    2.378945    2.571918    -55.611515    3.627902    -0.917500    4.076084    -4.044266    -2.957435    1.243545    23.882338    0.161695    16.604586    -12.513491    14.909861    13.616427    14.571657    1.026755    -17.470352    -5.771521    -9.442836    -21.665289    -4.975033    1.515086    -87.295097    -1.393527    -2.954728    -22.715546    -22.314285    -14.262254    -3.929524    30.802284    -35.123871    66.619164    19.631201    -43.326157    88.376259    53.789265    -30.748116    60.957062    36.601723    -23.194265    25.792366    -28.609276    41.129082    3.408492    -1.566995    -12.452808    43.318436    0.000000    0.000000    0.000000    -28.348589    -6.997815    -19.521481    3.959100    34.414223    -7.113012    19.819851    -14.402534    6.917561    0.000000    0.000000    0.000000    
20.637913    146.141861    47.130299    2.392612    2.575055    -55.620888    3.579107    -0.927453    4.050495    -3.977745    -2.932278    1.237652    23.897364    0.234096    16.665550    -12.581385    14.793083    13.679764    14.567760    1.018574    -17.422825    -5.784640    -9.428058    -21.658129    -4.963861    1.524052    -87.300880    -1.402223    -2.933385    -22.740557    -22.147978    -14.077858    -3.946513    30.659077    -35.050964    66.323967    19.462976    -43.450211    88.357826    53.824821    -30.730673    60.933952    36.601986    -23.207521    25.776270    -28.630867    41.112572    3.446088    -1.587514    -12.469242    43.323063    0.000000    0.000000    0.000000    -28.361338    -7.022696    -19.515087    3.971896    34.419678    -7.100837    19.829538    -14.414506    6.907462    0.000000    0.000000    0.000000    
20.656076    146.138550    47.118752    2.398399    2.573450    -55.628761    3.516824    -0.922659    4.023122    -3.878896    -2.921687    1.231611    23.892946    0.306951    16.729193    -12.648232    14.685587    13.749960    14.574813    1.023553    -17.409203    -5.828491    -9.423725    -21.604393    -4.957416    1.535228    -87.332939    -1.357836    -2.928805    -22.633862    -22.001177    -13.903872    -3.969254    30.565311    -34.996910    66.052902    19.442484    -43.530563    88.410187    53.851852    -30.787434    60.960075    36.602806    -23.215786    25.774704    -28.641762    41.109680    3.448603    -1.579148    -12.456614    43.344376    0.000000    0.000000    0.000000    -28.372749    -7.037437    -19.506662    3.982504    34.423222    -7.116489    19.833662    -14.410734    6.932947    0.000000    0.000000    0.000000    
20.678030    146.134552    47.107826    2.403857    2.576099    -55.638638    3.468415    -0.919730    3.996022    -3.800187    -2.908692    1.225158    23.933008    0.399727    16.792418    -12.781114    14.557697    13.814014    14.569710    1.028175    -17.382872    -5.838741    -9.380951    -21.566273    -4.939527    1.501233    -87.348465    -1.354291    -2.946928    -22.681234    -21.834354    -13.730797    -3.991397    30.412182    -34.914303    65.733360    19.375803    -43.631836    88.435905    53.889984    -30.778751    61.038769    36.604519    -23.222853    25.777845    -28.645615    41.098957    3.477551    -1.575304    -12.449336    43.329849    0.000000    0.000000    0.000000    -28.380314    -7.057605    -19.511208    3.983067    34.426208    -7.113933    19.840759    -14.404049    6.939764    0.000000    0.000000    0.000000    
20.702284    146.131744    47.099487    2.412290    2.575734    -55.643074    3.414609    -0.911697    3.960962    -3.698894    -2.903771    1.216467    23.905155    0.477181    16.853054    -12.853039    14.434797    13.883473    14.492739    1.033674    -17.321545    -5.797682    -9.320786    -21.563227    -4.927385    1.450710    -87.327797    -1.391576    -2.975513    -22.783243    -21.701948    -13.557323    -4.028817    30.355774    -34.832573    65.494583    19.338718    -43.720505    88.468300    53.898792    -30.851109    61.043919    36.598011    -23.240519    25.787245    -28.636827    41.111427    3.462829    -1.575494    -12.448128    43.343536    0.000000    0.000000    0.000000    -28.396896    -7.072602    -19.531796    3.990982    34.429737    -7.105791    19.818836    -14.405444    6.956353    0.000000    0.000000    0.000000    
